<?xml version="1.0" standalone="no"?>
<!DOCTYPE svg PUBLIC "-//W3C//DTD SVG 20010904//EN"
 "http://www.w3.org/TR/2001/REC-SVG-20010904/DTD/svg10.dtd">
<svg version="1.0" xmlns="http://www.w3.org/2000/svg"
 width="414.000000pt" height="414.000000pt" viewBox="0 0 414.000000 414.000000"
 preserveAspectRatio="xMidYMid meet">
<metadata>
Created by potrace 1.11, written by Peter Selinger 2001-2013
</metadata>
<g transform="translate(0.000000,414.000000) scale(0.100000,-0.100000)"
fill="#000000" stroke="none">
<path d="M877 4133 c-3 -2 -13 -6 -24 -8 -10 -2 -18 -4 -18 -5 0 -2 -22 -8
-48 -13 -9 -2 -23 -9 -29 -15 -7 -7 -17 -12 -24 -12 -26 0 -163 -100 -223
-164 -125 -129 -197 -250 -225 -374 -3 -12 -7 -26 -10 -30 -6 -10 -17 -57 -20
-87 -1 -11 -4 -24 -8 -30 -3 -5 -5 -25 -3 -43 1 -18 0 -34 -4 -37 -8 -4 -6
-224 3 -274 3 -18 11 -39 17 -47 6 -8 8 -14 4 -14 -4 0 -3 -6 3 -12 6 -7 11
-16 11 -20 1 -5 1 -9 2 -10 0 -2 2 -10 4 -18 13 -65 165 -381 202 -422 9 -10
13 -18 9 -18 -6 0 22 -58 34 -70 5 -5 30 -49 57 -101 7 -15 20 -32 28 -39 8
-7 15 -16 15 -20 0 -9 74 -136 116 -200 28 -42 27 -52 -7 -57 -11 -2 -30 -9
-42 -15 -12 -7 -24 -13 -27 -13 -14 -2 -107 -40 -117 -48 -7 -5 -13 -7 -13 -3
0 4 -13 0 -29 -8 -16 -9 -31 -12 -35 -9 -3 4 -6 0 -6 -7 0 -7 -3 -11 -6 -8 -3
3 -29 -3 -57 -14 -29 -11 -56 -20 -62 -22 -5 -1 -25 -10 -42 -19 -18 -10 -33
-15 -33 -12 0 3 -15 -2 -32 -12 -18 -9 -39 -18 -47 -19 -21 -4 -89 -74 -106
-111 -12 -26 -16 -63 -14 -171 1 -150 9 -177 70 -246 27 -31 150 -126 162
-126 3 0 51 -31 108 -68 57 -38 160 -102 228 -143 158 -95 146 -87 221 -135
36 -22 85 -52 110 -66 25 -15 128 -76 229 -137 100 -61 184 -111 186 -111 2 0
42 -24 89 -54 47 -30 115 -69 151 -87 36 -18 65 -36 65 -41 0 -4 4 -8 9 -8 5
0 69 -36 141 -80 73 -45 155 -93 184 -109 28 -15 71 -40 96 -57 43 -28 50 -29
169 -31 93 -2 131 2 152 13 16 8 29 11 29 8 0 -4 9 1 21 12 12 10 24 18 28 17
10 -4 73 18 99 33 12 8 22 12 22 9 0 -3 14 1 30 10 17 9 30 12 30 9 0 -4 9 1
20 11 11 10 20 14 20 10 0 -5 5 -4 11 2 6 6 18 9 25 6 8 -3 14 -1 14 3 0 5 15
15 33 22 69 28 125 52 202 86 l80 35 18 -29 c10 -16 39 -42 65 -58 81 -51 320
-165 335 -159 21 8 15 48 -8 61 -11 6 -22 14 -25 17 -3 4 -16 10 -30 14 -14 4
-31 13 -39 19 -7 6 -64 38 -125 71 -91 49 -114 67 -127 95 -10 19 -15 38 -12
42 16 28 26 231 12 259 -6 12 -2 21 16 33 14 9 25 14 25 11 0 -3 23 6 52 21
49 25 52 25 62 7 5 -10 11 -25 12 -33 5 -27 9 -45 15 -55 4 -5 4 -19 2 -30 -9
-40 -9 -111 1 -134 17 -38 78 -94 116 -106 22 -7 80 -40 80 -47 0 -4 -7 -5
-15 -2 -8 4 -16 2 -16 -2 -8 -53 -7 -54 75 -100 93 -53 108 -57 131 -40 15 11
16 16 5 35 -6 13 -9 25 -6 29 3 3 6 1 6 -5 0 -5 6 -10 13 -11 6 -1 23 -3 37
-4 22 -3 25 1 25 27 0 21 -7 33 -25 42 -14 6 -81 39 -149 73 -68 33 -134 69
-147 79 l-23 18 42 20 c23 11 45 21 50 21 4 1 22 9 40 19 17 9 37 18 42 19 6
1 21 6 35 12 14 5 30 11 35 12 6 2 25 11 44 21 19 10 38 16 43 13 4 -3 8 0 8
5 0 6 5 11 11 11 6 0 33 11 61 25 27 14 54 25 58 25 5 0 39 14 75 31 63 31 65
33 65 70 0 44 -8 45 -87 8 -26 -12 -54 -23 -62 -25 -7 -1 -18 -7 -24 -13 -6
-6 -17 -11 -25 -11 -17 0 -291 -117 -309 -132 -7 -6 -13 -8 -13 -5 0 4 -30 -7
-66 -23 -75 -34 -84 -36 -84 -15 0 8 4 15 9 15 5 0 30 10 57 22 27 11 50 20
52 19 1 -1 17 6 35 16 17 9 36 16 41 15 5 -2 12 2 16 8 3 6 16 12 28 15 11 2
31 9 44 16 13 7 31 14 40 16 10 2 37 11 60 22 58 25 151 61 173 67 28 6 65 24
66 31 6 37 5 60 -3 71 -6 6 -7 12 -3 12 4 0 2 7 -5 15 -7 8 -10 15 -7 15 4 0
0 18 -8 40 -8 22 -14 42 -15 45 0 3 0 6 -1 8 -2 11 -11 89 -13 117 -3 52 22
107 54 120 45 19 32 47 -38 83 -80 41 -117 62 -123 70 -3 5 -8 8 -10 6 -2 -1
-23 10 -46 24 -24 15 -45 27 -48 27 -3 0 -23 11 -45 25 -22 14 -40 23 -40 21
0 -2 -39 19 -87 46 -49 28 -108 62 -133 76 -25 13 -49 27 -55 32 -5 4 -55 31
-109 60 -126 66 -162 86 -311 173 -16 9 -60 33 -97 53 l-68 36 18 30 c9 16 25
38 35 49 10 10 15 19 12 19 -4 0 3 12 14 26 12 15 21 31 21 36 0 5 9 21 19 36
64 91 191 306 195 328 1 7 7 18 13 25 6 8 32 55 58 104 26 50 51 95 55 100 5
6 17 33 28 60 11 28 28 68 38 90 10 22 19 45 20 50 0 6 4 18 8 27 4 9 8 22 10
30 1 7 5 18 8 24 15 23 29 118 29 194 0 65 -15 235 -21 235 -1 0 -3 9 -5 20
-5 27 -13 60 -15 60 -1 0 -3 9 -5 20 -8 46 -16 70 -54 148 -58 123 -157 243
-272 332 -57 44 -149 100 -149 90 0 -3 -11 2 -25 11 -14 9 -25 13 -25 10 0 -4
-10 -1 -22 5 -13 7 -34 15 -48 18 -39 8 -492 6 -520 -3 -14 -4 -34 -8 -45 -10
-11 -1 -31 -9 -45 -16 -14 -8 -31 -15 -38 -16 -8 -1 -22 -10 -31 -18 -10 -9
-21 -13 -24 -9 -4 3 -7 1 -7 -5 0 -7 -6 -12 -12 -12 -14 0 -132 -91 -185 -142
l-32 -31 -78 64 c-43 35 -80 66 -83 70 -7 10 -130 81 -143 83 -7 1 -27 10 -44
19 -18 10 -33 16 -33 13 0 -2 -21 2 -46 10 -33 10 -107 13 -274 13 -126 0
-231 -3 -233 -6z m308 -47 c31 -5 96 -15 124 -21 40 -8 122 -40 185 -72 72
-36 176 -108 176 -122 0 -4 12 -13 26 -20 35 -15 24 -25 -29 -26 l-42 0 0 -79
c0 -70 2 -79 19 -82 29 -4 69 -37 73 -59 12 -60 15 -127 16 -388 2 -248 0
-290 -13 -296 -16 -8 -946 -5 -1020 3 -25 3 -52 7 -60 9 -8 3 -30 8 -47 12
-18 4 -30 11 -28 16 3 4 1 10 -5 14 -6 4 -8 10 -5 14 2 5 -1 16 -8 25 -15 20
-76 27 -122 15 -32 -9 -33 -11 -28 -52 9 -79 10 -92 5 -106 -4 -11 -28 30 -38
64 -1 6 -14 40 -27 78 -14 37 -23 67 -21 67 3 0 2 5 -2 12 -21 34 -15 190 11
296 3 12 7 31 10 42 7 34 27 92 47 137 10 24 18 44 17 45 -1 2 13 27 30 56 17
29 31 55 31 58 0 3 4 10 10 17 5 7 32 39 59 72 27 33 66 74 87 91 39 30 172
111 187 113 4 0 20 7 36 15 16 9 31 12 35 9 3 -4 6 -2 6 4 0 5 6 10 13 11 6 0
23 3 37 6 14 3 39 8 55 11 17 3 47 7 67 8 20 1 39 5 42 8 4 3 19 5 34 3 15 -3
41 -6 57 -8z m1375 0 c20 -1 40 -5 46 -8 6 -4 19 -5 30 -4 10 2 24 0 29 -4 6
-4 24 -10 40 -14 80 -18 237 -97 281 -141 12 -12 29 -25 37 -28 13 -5 48 -45
133 -149 7 -10 11 -18 8 -18 -4 0 -1 -6 5 -14 22 -26 103 -198 106 -226 1 -3
4 -14 8 -25 3 -11 9 -33 12 -50 8 -40 13 -60 15 -60 3 0 10 -85 12 -140 1 -55
-3 -88 -23 -155 -7 -25 -13 -47 -14 -50 0 -3 -6 -15 -13 -27 -7 -13 -10 -23
-7 -23 3 0 -1 -10 -10 -23 -8 -13 -13 -26 -10 -29 3 -3 -2 -11 -10 -18 -14
-12 -15 -10 -10 16 13 59 12 114 -1 125 -19 15 -106 19 -125 5 -9 -6 -19 -21
-23 -34 -8 -25 -41 -50 -77 -58 -54 -12 -156 -15 -618 -17 -447 -2 -484 -1
-490 15 -5 15 -6 506 -1 518 2 3 4 28 5 55 1 28 4 55 5 60 6 19 8 30 9 43 2
19 51 61 65 56 18 -7 33 35 29 86 -5 80 -4 79 -65 75 -21 -1 -38 1 -38 4 0 19
152 135 220 168 32 15 93 40 100 40 3 0 14 5 26 11 22 12 62 22 104 27 14 1
25 4 25 5 0 1 21 3 47 4 26 1 50 5 54 8 3 4 16 4 27 1 12 -3 38 -6 57 -7z
m-829 -1321 c0 -5 2 -93 3 -195 1 -164 0 -186 -16 -199 -9 -8 -23 -16 -30 -17
-7 -1 -26 -8 -43 -15 -16 -6 -34 -13 -40 -15 -5 -1 -27 -9 -47 -18 -21 -9 -38
-14 -38 -11 0 3 -10 0 -22 -7 -13 -6 -31 -13 -41 -15 -10 -2 -32 -11 -50 -20
-18 -9 -36 -18 -42 -19 -5 -1 -23 -7 -40 -14 -16 -6 -31 -11 -33 -10 -2 1 -14
-6 -27 -14 -13 -9 -35 -18 -47 -20 -13 -3 -25 -5 -28 -6 -3 -2 -8 -2 -12 -2
-3 1 -12 -5 -18 -13 -7 -8 -20 -15 -29 -15 -9 0 -22 -5 -29 -12 -7 -7 -12 -8
-12 -4 0 5 -6 4 -13 -2 -7 -6 -28 -14 -46 -17 -19 -3 -41 -10 -51 -15 -9 -5
-40 -18 -69 -29 l-51 -21 -18 20 c-9 12 -15 23 -14 27 2 3 0 9 -5 12 -21 15
-118 174 -250 411 -35 63 -68 119 -74 124 -12 13 -12 39 1 31 20 -12 46 6 58
40 12 33 41 52 70 46 8 -1 19 2 25 7 7 4 63 8 125 7 62 0 115 2 117 5 6 10
835 5 836 -5z m1104 1 c196 -7 219 -14 245 -76 7 -16 15 -29 19 -28 26 3 33
-3 21 -17 -7 -8 -9 -15 -5 -15 4 0 3 -6 -3 -12 -12 -15 -162 -275 -162 -281 0
-3 -49 -81 -108 -174 l-108 -169 -29 17 c-17 10 -34 22 -40 26 -5 5 -14 11
-20 12 -30 10 -62 27 -78 40 -10 8 -23 16 -30 17 -7 1 -35 15 -63 32 -28 16
-76 44 -105 60 -30 17 -82 46 -117 66 -34 19 -63 34 -65 33 -1 -1 -54 28 -118
65 -102 60 -135 74 -174 77 -8 1 -13 298 -6 331 1 6 768 3 946 -4z m-790 -486
c44 -24 95 -52 114 -61 18 -10 42 -26 52 -35 11 -9 19 -14 19 -11 0 7 84 -36
145 -74 22 -14 56 -33 76 -42 20 -9 42 -23 49 -32 7 -8 19 -15 27 -15 8 0 26
-9 40 -20 14 -11 31 -20 39 -20 7 0 14 -3 16 -7 2 -5 18 -15 36 -23 l32 -15
-36 -55 c-20 -30 -44 -61 -52 -67 -9 -7 -13 -13 -9 -13 3 0 -34 -60 -83 -132
-113 -168 -123 -182 -132 -186 -5 -2 -8 -8 -8 -14 0 -5 -37 -62 -82 -126 -45
-64 -106 -153 -136 -197 -30 -44 -62 -86 -71 -93 -9 -7 -14 -14 -11 -15 5 -2
-79 -127 -86 -127 -16 0 -63 32 -69 47 -22 52 -27 177 -28 797 -2 644 -3 635
51 598 15 -10 63 -38 107 -62z m-312 -607 c-3 -629 -4 -673 -17 -710 -7 -23
-26 -32 -26 -13 0 6 -9 10 -20 10 -11 0 -23 7 -26 15 -4 8 -10 13 -14 10 -5
-3 -11 -1 -15 4 -3 6 -27 22 -54 36 -26 14 -56 41 -66 58 -10 18 -51 77 -90
132 -40 55 -170 246 -289 424 l-216 325 32 14 c18 8 39 15 46 15 6 0 12 4 12
9 0 4 4 8 9 8 5 0 22 5 38 12 15 6 37 13 47 15 11 2 25 8 32 14 7 5 25 12 40
15 16 3 32 11 36 17 4 7 8 8 8 3 0 -5 6 -3 14 3 8 7 22 13 32 15 11 3 33 10
49 17 17 7 33 13 38 14 4 2 8 3 10 5 1 1 9 3 17 5 8 2 29 9 45 16 17 7 32 13
35 13 7 2 150 56 185 71 17 7 41 17 55 23 59 25 55 67 53 -595z m-889 227 c14
-22 23 -40 19 -40 -5 0 -3 -4 3 -8 10 -7 144 -200 144 -208 0 -3 18 -29 40
-59 22 -30 40 -56 40 -59 0 -2 56 -85 124 -183 67 -98 120 -179 115 -181 -4
-2 -38 17 -76 40 -37 24 -84 52 -104 61 -20 9 -42 23 -49 32 -7 8 -19 15 -26
15 -8 0 -44 19 -81 43 -84 54 -216 131 -224 132 -3 0 -35 17 -70 39 -293 177
-376 216 -381 182 -4 -33 -1 -42 17 -52 11 -7 40 -23 65 -38 25 -14 56 -31 70
-38 14 -7 27 -15 30 -19 3 -3 23 -16 45 -28 96 -52 151 -85 157 -95 4 -6 8 -7
8 -2 0 5 8 2 18 -6 16 -14 60 -39 192 -111 30 -17 73 -42 95 -57 22 -15 99
-60 170 -100 164 -91 257 -149 272 -169 19 -27 7 -24 -39 6 -24 17 -68 43 -98
60 -30 17 -101 58 -158 92 -57 33 -105 61 -107 61 -2 0 -24 14 -48 30 -25 17
-48 30 -52 30 -3 0 -26 14 -51 30 -24 17 -44 28 -44 24 0 -4 -8 0 -17 8 -10 9
-38 26 -63 40 -25 13 -71 41 -102 61 -31 20 -59 37 -62 37 -3 0 -51 27 -107
60 -55 33 -105 60 -110 60 -5 0 -9 5 -9 10 0 6 -4 10 -9 10 -5 0 -35 16 -67
35 -68 41 -70 41 -84 15 -14 -26 0 -54 37 -73 63 -33 251 -140 293 -167 8 -5
47 -29 85 -52 39 -23 73 -46 76 -51 3 -5 8 -7 10 -5 4 3 61 -29 249 -141 19
-11 53 -30 75 -42 22 -12 84 -48 137 -80 53 -32 111 -67 130 -77 235 -134 268
-155 268 -178 0 -7 4 -14 9 -16 10 -3 145 -204 172 -254 26 -48 55 -42 85 19
45 89 48 91 107 54 64 -39 83 -42 97 -17 8 15 8 25 -2 39 -7 10 -15 18 -18 18
-16 -1 -101 61 -91 67 9 6 82 -29 119 -58 19 -14 50 -15 56 0 14 36 -4 55 -91
100 -18 9 -33 19 -33 22 0 3 10 19 23 36 13 17 59 82 102 145 43 63 95 137
116 165 22 28 39 56 39 63 0 7 6 16 13 20 7 4 28 32 46 61 19 30 39 59 46 65
6 7 62 89 124 182 63 94 117 172 120 175 4 3 36 51 71 107 41 64 68 99 75 94
11 -10 66 -42 135 -79 25 -13 52 -30 60 -37 8 -8 19 -14 23 -14 4 0 57 -27
118 -60 60 -34 111 -61 114 -61 2 0 24 -13 48 -30 25 -16 49 -30 55 -30 5 0
15 -7 22 -15 6 -8 15 -14 18 -12 4 1 27 -10 52 -25 75 -44 310 -173 388 -214
78 -40 94 -54 64 -54 -10 0 -22 -3 -26 -7 -3 -4 -12 -8 -19 -9 -7 -1 -30 -10
-52 -20 -22 -10 -44 -18 -50 -20 -5 -1 -28 -10 -50 -19 -22 -10 -44 -19 -50
-21 -5 -1 -28 -10 -50 -20 -22 -10 -43 -18 -47 -18 -3 -1 -10 -4 -14 -9 -4 -4
-13 -7 -20 -7 -7 0 -25 -5 -41 -12 -15 -6 -31 -12 -35 -13 -14 -4 -18 -5 -20
-5 -2 1 -51 -19 -110 -44 -59 -24 -109 -41 -112 -38 -4 3 -6 0 -6 -7 0 -7 -4
-9 -10 -6 -5 3 -10 1 -10 -6 0 -7 -3 -10 -6 -7 -3 4 -22 -1 -42 -9 -77 -32
-87 -36 -99 -39 -10 -2 -135 -49 -203 -76 -14 -5 -27 -10 -30 -9 -3 0 -15 -7
-27 -15 -13 -8 -23 -12 -23 -9 0 3 -10 0 -22 -7 -13 -7 -25 -13 -28 -14 -15
-3 -49 -17 -79 -32 -19 -9 -41 -16 -48 -14 -7 2 -13 -1 -13 -6 0 -5 -10 -12
-22 -15 -25 -6 -175 -58 -223 -78 -16 -7 -34 -13 -40 -14 -5 -2 -32 -13 -58
-25 -87 -41 -110 -100 -109 -275 1 -106 4 -145 15 -163 14 -21 -8 -11 -88 38
-22 14 -52 32 -67 39 -16 8 -28 18 -28 23 0 5 -4 6 -10 3 -5 -3 -10 -1 -10 6
0 7 -3 10 -6 7 -5 -6 -60 26 -91 52 -7 6 -13 8 -13 4 0 -4 -9 1 -20 11 -11 10
-20 14 -20 10 0 -5 -10 0 -22 11 -22 18 -41 30 -98 61 -14 8 -37 22 -52 31
-15 9 -69 42 -120 72 -51 30 -111 66 -133 81 -22 15 -65 40 -95 56 -30 16 -74
41 -97 56 -24 15 -47 27 -52 27 -5 0 -11 4 -13 8 -3 8 -233 152 -242 152 -3 0
-31 17 -63 38 -32 20 -67 42 -78 49 -11 7 -51 31 -90 54 -141 86 -327 211
-359 242 -31 30 -105 147 -92 147 3 0 -1 18 -9 40 -9 25 -10 42 -4 46 6 3 8
11 6 17 -2 7 1 21 6 32 6 11 12 25 13 32 3 16 43 74 66 94 10 9 39 22 66 29
26 8 57 20 70 28 12 8 22 12 22 9 0 -4 20 2 45 13 25 11 47 19 50 20 3 0 22 7
43 16 20 10 39 18 42 18 16 4 127 51 138 59 6 5 12 6 12 2 0 -4 7 -2 15 5 8 7
15 10 15 7 0 -3 19 3 43 13 23 11 43 20 43 20 1 0 13 -18 28 -40z m3069 -742
c-10 -12 -9 -41 1 -133 5 -39 12 -77 16 -82 2 -2 4 -12 5 -23 1 -11 4 -23 5
-27 1 -5 2 -12 1 -16 -1 -4 3 -16 8 -25 6 -11 6 -24 0 -33 -5 -7 -9 -10 -9 -6
0 4 -10 2 -22 -5 -13 -6 -27 -13 -33 -14 -5 -1 -32 -12 -60 -25 -27 -12 -54
-23 -60 -25 -5 -1 -23 -7 -40 -14 -16 -6 -31 -11 -33 -10 -2 1 -14 -6 -28 -14
-13 -9 -24 -14 -24 -11 0 3 -10 0 -22 -7 -13 -7 -28 -12 -33 -13 -13 0 -87
-30 -137 -55 -26 -12 -38 -14 -39 -7 0 11 -5 32 -12 60 -2 6 -7 26 -12 42 -4
17 -10 35 -14 40 -3 6 -6 15 -6 20 0 17 -48 12 -90 -8 -22 -11 -41 -19 -43
-18 -2 2 -13 -4 -25 -12 -12 -8 -39 -20 -60 -26 -20 -7 -42 -21 -47 -31 -9
-18 -9 -26 6 -67 4 -10 8 -34 11 -53 2 -19 5 -40 8 -47 4 -12 -10 -26 -30 -29
-5 -1 -23 -7 -40 -14 -16 -6 -32 -12 -35 -12 -3 0 -14 -5 -25 -11 -11 -6 -24
-12 -30 -13 -5 -1 -28 -10 -50 -19 -22 -10 -44 -19 -50 -20 -5 -2 -32 -13 -60
-26 -27 -12 -54 -23 -60 -25 -5 -1 -28 -10 -50 -20 -22 -10 -44 -19 -50 -20
-27 -6 -201 -76 -212 -86 -7 -6 -13 -7 -13 -4 0 4 -10 1 -22 -6 -13 -6 -27
-13 -33 -14 -5 -1 -28 -10 -50 -19 -22 -10 -49 -20 -59 -22 -11 -2 -28 -11
-37 -19 -24 -21 -36 -12 -51 39 -41 142 -24 294 38 344 15 12 31 20 34 18 3
-2 33 8 65 21 33 14 68 27 79 29 10 2 24 9 32 16 8 6 14 8 14 5 0 -4 12 0 28
8 27 14 58 27 77 31 6 2 27 10 48 18 20 9 38 16 40 15 1 -1 13 5 27 12 14 8
30 15 35 16 18 4 160 56 170 62 5 4 15 7 20 8 6 1 24 8 40 15 17 7 32 13 35
13 3 1 41 16 85 35 44 18 96 39 115 47 19 7 49 19 65 25 17 7 32 13 35 14 3 0
30 9 60 20 30 11 57 20 60 20 3 0 21 8 40 17 19 8 55 23 80 33 25 9 56 22 70
28 14 6 30 11 35 13 6 1 24 8 40 15 17 6 35 13 40 15 6 1 28 10 50 19 22 10
42 18 45 18 3 0 30 11 60 23 63 26 98 31 83 12z m-2083 -495 c0 -18 -19 -26
-33 -15 -7 6 -20 25 -31 42 l-18 32 41 -24 c22 -12 41 -28 41 -35z m1270 -268
c-7 -8 -9 -15 -4 -15 8 -1 -24 -23 -36 -26 -9 -2 -45 -17 -100 -42 -30 -14
-59 -25 -64 -23 -4 1 -19 -5 -32 -14 -13 -8 -24 -13 -24 -10 0 3 -13 -1 -29
-9 -16 -9 -31 -13 -33 -10 -3 2 -11 -2 -18 -11 -7 -8 -19 -15 -27 -15 -8 0
-28 -8 -46 -17 -18 -9 -36 -18 -42 -19 -5 -1 -59 -23 -120 -47 -128 -52 -146
-59 -160 -62 -5 -1 -12 -3 -15 -4 -24 -11 -100 -20 -100 -12 0 11 35 36 55 39
11 2 30 10 43 18 12 8 22 12 22 10 0 -3 20 3 44 14 24 10 47 16 50 13 3 -4 6
-1 6 5 0 7 3 11 8 10 4 -1 17 3 30 10 12 7 22 10 22 7 0 -3 12 0 28 9 15 8 50
24 79 35 28 12 64 26 80 33 15 6 31 11 36 10 4 -1 7 2 7 6 0 5 6 9 13 9 6 0
30 8 52 18 22 10 45 19 50 20 6 0 17 4 25 8 22 9 74 30 83 32 4 2 9 3 12 4 16
4 23 7 55 23 45 22 67 24 50 3z"/>
<path d="M3419 237 c-1 -1 -3 -12 -4 -25 -3 -25 13 -38 106 -90 71 -39 110
-45 115 -17 4 27 -7 37 -84 83 -54 32 -126 58 -133 49z"/>
</g>
</svg>
